<?xml version="1.0" encoding="utf-8"?>
<!-- Generator: Adobe Illustrator 27.5.0, SVG Export Plug-In . SVG Version: 6.00 Build 0)  -->
<svg version="1.1" id="Layer_1" xmlns="http://www.w3.org/2000/svg" xmlns:xlink="http://www.w3.org/1999/xlink" x="0px" y="0px"
	 viewBox="0 0 206.788 279.269" style="enable-background:new 0 0 206.788 279.269;" xml:space="preserve">
<g>
	<g>
		<path style="fill:#FFFFFF;" d="M16.593,180.101l76.941,87.99c3.939,4.507,9.225,6.989,14.883,6.989
			c5.507,0,10.599-2.355,14.274-6.559l74.698-82.058c0.021-0.024,0.044-0.049,0.065-0.074c1.083-1.237,4.376-5.006,5.756-26.466
			c0.757-11.763,0.604-24.517-0.396-33.46c0.504-6.464-1.538-12.819-5.645-17.509l-41.488-47.448l0.098-1.152
			c0.213-2.473-0.549-4.877-2.145-6.77c-1.347-1.597-3.153-2.671-5.17-3.095c-1.089-0.69-2.313-1.15-3.591-1.343l-24.641-28.181
			c-3.939-4.516-9.228-7.002-14.892-7.002c-5.502,0-10.604,2.367-14.364,6.667l-74.665,85.397c-1.711,1.954-3.047,4.211-3.978,6.717
			c-4.015,6.904-3.527,24.291-2.857,34.25C9.905,153.343,11.682,174.488,16.593,180.101z"/>
		<path style="fill:#F1F1F1;" d="M16.054,179.212l76.941,87.99c3.939,4.507,9.225,6.988,14.884,6.988
			c5.506,0,10.598-2.355,14.273-6.558l74.699-82.058c0.021-0.024,0.043-0.049,0.064-0.074c1.074-1.245,4.376-5.007,5.756-26.467
			c0.757-11.762,0.604-24.516-0.396-33.459c0.505-6.465-1.537-12.82-5.644-17.51l-41.489-47.447l0.098-1.152
			c0.214-2.473-0.548-4.877-2.144-6.77c-1.348-1.597-3.154-2.671-5.171-3.095c-1.089-0.69-2.313-1.15-3.59-1.343l-24.641-28.181
			c-3.939-4.517-9.229-7.002-14.893-7.002c-5.502,0-10.603,2.366-14.364,6.667l-74.665,85.398c-1.71,1.953-3.047,4.21-3.977,6.716
			c-4.015,6.903-3.527,24.291-2.858,34.25C9.366,152.454,11.143,173.6,16.054,179.212z"/>
		<path style="fill:#E2E2E2;" d="M15.516,178.323l76.941,87.99c3.94,4.507,9.225,6.989,14.883,6.989
			c5.507,0,10.599-2.355,14.274-6.558l74.698-82.059c0.022-0.024,0.044-0.049,0.065-0.073c1.087-1.236,4.376-5.007,5.756-26.467
			c0.757-11.764,0.604-24.518-0.396-33.46c0.504-6.464-1.538-12.819-5.645-17.509L154.605,59.73l0.098-1.153
			c0.213-2.473-0.549-4.876-2.144-6.769c-1.347-1.598-3.153-2.672-5.17-3.095c-1.089-0.691-2.313-1.151-3.591-1.344l-24.641-28.18
			c-3.938-4.516-9.227-7.003-14.892-7.003c-5.502,0-10.604,2.367-14.364,6.667l-74.665,85.398c-1.711,1.953-3.047,4.209-3.977,6.716
			c-4.015,6.904-3.527,24.291-2.857,34.25C8.828,151.564,10.605,172.712,15.516,178.323z"/>
		<path style="fill:#D4D4D4;" d="M14.977,177.434l76.942,87.99c3.939,4.508,9.224,6.989,14.882,6.989
			c5.508,0,10.599-2.354,14.275-6.558l74.697-82.059c0.023-0.024,0.044-0.049,0.065-0.072c1.099-1.225,4.376-5.008,5.756-26.467
			c0.757-11.763,0.604-24.518-0.396-33.46c0.505-6.465-1.538-12.819-5.645-17.51l-41.488-47.447l0.098-1.153
			c0.213-2.472-0.548-4.876-2.145-6.769c-1.346-1.598-3.153-2.672-5.17-3.095c-1.089-0.69-2.313-1.151-3.591-1.344l-24.641-28.18
			c-3.938-4.516-9.227-7.002-14.892-7.002c-5.502,0-10.604,2.367-14.364,6.666l-74.665,85.398c-1.711,1.953-3.046,4.21-3.978,6.716
			c-4.014,6.904-3.526,24.292-2.856,34.25C8.289,150.676,10.066,171.822,14.977,177.434z"/>
		<path style="fill:#C5C5C5;" d="M14.438,176.545l76.941,87.99c3.939,4.508,9.225,6.989,14.883,6.989
			c5.508,0,10.599-2.354,14.274-6.557l74.698-82.059c0.023-0.025,0.044-0.05,0.066-0.074c1.087-1.235,4.376-5.007,5.756-26.467
			c0.757-11.762,0.604-24.516-0.396-33.459c0.504-6.464-1.539-12.819-5.645-17.509l-41.488-47.448l0.098-1.152
			c0.213-2.473-0.548-4.877-2.145-6.77c-1.347-1.598-3.153-2.672-5.17-3.095c-1.089-0.69-2.313-1.151-3.589-1.344l-24.643-28.18
			c-3.938-4.516-9.227-7.002-14.891-7.002c-5.503,0-10.604,2.367-14.365,6.667l-74.665,85.398c-1.711,1.952-3.046,4.21-3.978,6.715
			c-4.015,6.905-3.526,24.292-2.856,34.251C7.751,149.788,9.527,170.935,14.438,176.545z"/>
		<path style="fill:#B7B7B7;" d="M13.9,175.656l76.942,87.991c3.938,4.507,9.224,6.988,14.882,6.988
			c5.507,0,10.6-2.354,14.274-6.557l74.698-82.058c0.023-0.025,0.044-0.051,0.066-0.074c1.1-1.225,4.376-5.007,5.756-26.467
			c0.757-11.763,0.604-24.517-0.395-33.459c0.504-6.465-1.539-12.82-5.646-17.511l-41.488-47.447l0.098-1.152
			c0.213-2.472-0.548-4.877-2.145-6.77c-1.347-1.597-3.153-2.671-5.17-3.095c-1.089-0.69-2.313-1.151-3.59-1.343l-24.642-28.181
			c-3.938-4.516-9.228-7.002-14.891-7.002c-5.503,0-10.604,2.367-14.365,6.668L13.62,101.587c-1.711,1.952-3.046,4.21-3.978,6.715
			c-4.015,6.905-3.527,24.292-2.856,34.251C7.213,148.9,8.989,170.046,13.9,175.656z"/>
		<path style="fill:#A8A8A8;" d="M13.361,174.768l76.942,87.991c3.938,4.507,9.224,6.988,14.883,6.988
			c5.506,0,10.599-2.354,14.273-6.558l74.698-82.058c0.022-0.024,0.045-0.05,0.065-0.074c1.073-1.247,4.377-5.006,5.756-26.467
			c0.758-11.762,0.604-24.516-0.395-33.459c0.504-6.464-1.539-12.819-5.646-17.509l-41.487-47.448l0.097-1.152
			c0.215-2.473-0.548-4.877-2.145-6.77c-1.347-1.597-3.152-2.671-5.17-3.095c-1.088-0.69-2.313-1.15-3.59-1.343l-24.641-28.181
			c-3.938-4.516-9.229-7.002-14.891-7.002c-5.504,0-10.605,2.367-14.365,6.667l-74.666,85.397c-1.711,1.953-3.046,4.211-3.977,6.717
			c-4.015,6.904-3.527,24.291-2.857,34.25C6.675,148.011,8.45,169.156,13.361,174.768z"/>
		<path style="fill:#9A9A9A;" d="M12.823,173.88l76.942,87.99c3.938,4.507,9.224,6.989,14.882,6.989c5.507,0,10.6-2.355,14.274-6.56
			l74.699-82.057c0.021-0.024,0.043-0.049,0.064-0.074c1.087-1.235,4.376-5.006,5.756-26.466
			c0.757-11.763,0.604-24.517-0.395-33.461c0.504-6.464-1.539-12.818-5.646-17.509l-41.488-47.447l0.098-1.152
			c0.213-2.473-0.548-4.877-2.145-6.77c-1.347-1.597-3.153-2.671-5.17-3.095c-1.089-0.69-2.313-1.151-3.59-1.343l-24.642-28.181
			c-3.938-4.516-9.228-7.002-14.891-7.002c-5.503,0-10.604,2.367-14.364,6.666L12.543,99.809c-1.711,1.953-3.046,4.211-3.977,6.717
			c-4.015,6.904-3.527,24.291-2.856,34.25C6.135,147.122,7.912,168.268,12.823,173.88z"/>
		<path style="fill:#8B8B8B;" d="M12.284,172.991l76.943,87.99c3.938,4.507,9.224,6.988,14.881,6.988
			c5.507,0,10.6-2.355,14.275-6.558l74.698-82.059c0.021-0.025,0.043-0.048,0.065-0.072c1.086-1.235,4.375-5.008,5.755-26.467
			c0.757-11.763,0.604-24.517-0.396-33.461c0.505-6.464-1.538-12.818-5.645-17.509l-41.489-47.446l0.098-1.153
			c0.214-2.474-0.548-4.876-2.144-6.771c-1.347-1.597-3.154-2.67-5.171-3.095c-1.088-0.69-2.313-1.15-3.59-1.342l-24.642-28.181
			c-3.938-4.516-9.228-7.002-14.891-7.002c-5.503,0-10.604,2.366-14.364,6.667L12.004,98.921c-1.71,1.952-3.046,4.21-3.978,6.716
			c-4.014,6.904-3.527,24.291-2.856,34.25C5.597,146.233,7.374,167.379,12.284,172.991z"/>
		<path style="fill:#7D7D7D;" d="M11.746,172.102l76.942,87.991c3.938,4.506,9.225,6.989,14.882,6.989
			c5.507,0,10.6-2.355,14.274-6.559l74.699-82.059c0.021-0.024,0.043-0.049,0.065-0.073c1.086-1.235,4.375-5.006,5.755-26.467
			c0.757-11.763,0.604-24.517-0.396-33.459c0.504-6.465-1.538-12.819-5.645-17.51L150.836,53.51l0.097-1.154
			c0.214-2.472-0.548-4.876-2.145-6.768c-1.347-1.598-3.153-2.672-5.17-3.095c-1.088-0.691-2.313-1.151-3.59-1.343l-24.642-28.181
			c-3.939-4.515-9.228-7.003-14.891-7.003c-5.503,0-10.604,2.368-14.364,6.667L11.466,98.032c-1.71,1.952-3.046,4.209-3.977,6.715
			c-4.015,6.905-3.527,24.292-2.856,34.25C5.059,145.344,6.835,166.491,11.746,172.102z"/>
		<path style="fill:#6E6E6E;" d="M11.208,171.213l76.941,87.99c3.938,4.508,9.226,6.989,14.883,6.989
			c5.507,0,10.599-2.355,14.273-6.558l74.7-82.059c0.021-0.024,0.042-0.049,0.064-0.073c1.086-1.235,4.375-5.007,5.755-26.467
			c0.757-11.762,0.604-24.517-0.396-33.459c0.505-6.465-1.537-12.819-5.644-17.51L150.297,52.62l0.098-1.153
			c0.214-2.472-0.548-4.876-2.145-6.769c-1.348-1.598-3.154-2.672-5.171-3.095c-1.088-0.69-2.312-1.151-3.59-1.344l-24.641-28.18
			c-3.938-4.516-9.228-7.002-14.891-7.002c-5.504,0-10.604,2.367-14.364,6.666L10.927,97.143c-1.709,1.953-3.045,4.21-3.977,6.716
			c-4.015,6.904-3.527,24.292-2.858,34.25C4.52,144.455,6.296,165.602,11.208,171.213z"/>
		<path style="fill:#606060;" d="M10.67,170.324l76.941,87.99c3.938,4.508,9.225,6.989,14.883,6.989
			c5.506,0,10.599-2.354,14.273-6.558l74.699-82.058c0.021-0.025,0.043-0.05,0.065-0.074c1.082-1.238,4.375-5.006,5.755-26.467
			c0.757-11.762,0.604-24.516-0.395-33.459c0.504-6.464-1.538-12.819-5.645-17.51l-41.488-47.447l0.098-1.152
			c0.213-2.473-0.549-4.877-2.146-6.77c-1.347-1.598-3.153-2.672-5.17-3.095c-1.088-0.69-2.313-1.151-3.59-1.344l-24.642-28.18
			c-3.938-4.516-9.227-7.002-14.891-7.002c-5.503,0-10.604,2.367-14.364,6.667L10.389,96.254c-1.71,1.953-3.046,4.211-3.977,6.716
			c-4.014,6.905-3.527,24.292-2.856,34.251C3.981,143.567,5.758,164.713,10.67,170.324z"/>
	</g>
	<path style="fill:#FFFFFF;" d="M10.67,170.324l76.941,87.99c3.938,4.508,9.225,6.989,14.883,6.989
		c5.506,0,10.599-2.354,14.273-6.558l74.699-82.058c0.021-0.025,0.043-0.05,0.065-0.074c1.082-1.238,4.375-5.006,5.755-26.467
		c0.757-11.762,0.604-24.516-0.395-33.459c0.504-6.464-1.538-12.819-5.645-17.51l-41.488-47.447l0.098-1.152
		c0.213-2.473-0.549-4.877-2.146-6.77c-1.347-1.598-3.153-2.672-5.17-3.095c-1.088-0.69-2.313-1.151-3.59-1.344l-24.642-28.18
		c-3.938-4.516-9.227-7.002-14.891-7.002c-5.503,0-10.604,2.367-14.364,6.667L10.389,96.254c-1.71,1.953-3.046,4.211-3.977,6.716
		c-4.014,6.905-3.527,24.292-2.856,34.251C3.981,143.567,5.758,164.713,10.67,170.324z"/>
	<g>
		<g>
			<g>
				<path style="fill:#43240D;" d="M111.653,254.083c-5.124,5.863-13.561,5.717-18.837-0.323l-76.942-87.992
					c-5.281-6.032-8.352-53.827-3.227-59.689l77.611-47.25c5.129-5.862,13.562-5.72,18.842,0.323l78.541,48.382
					c5.282,6.039,3.806,58.671-1.315,64.523L111.653,254.083z"/>
				<path style="fill:#3F210B;" d="M102.494,260.454c-4.24,0-8.229-1.895-11.231-5.33L14.32,167.132
					c-5.47-6.251-9.378-55.384-3.228-62.41c0.14-0.162,0.302-0.298,0.481-0.402l77.35-47.099c2.802-3.078,6.518-4.767,10.496-4.767
					c4.142,0,8.042,1.813,11.021,5.098l78.287,48.222c0.175,0.112,0.336,0.24,0.47,0.403c5.646,6.445,4.585,60.494-1.316,67.246
					l-74.698,82.058C110.384,258.68,106.58,260.454,102.494,260.454z M14.046,107.653c-3.91,5.75-1.265,51.442,3.383,56.757
					l76.942,87.993c4.303,4.927,11.563,5.081,15.728,0.322l74.696-82.057c4.576-5.232,5.701-55.449,1.454-61.562l-78.234-48.196
					c-0.173-0.106-0.334-0.24-0.469-0.395c-4.313-4.927-11.557-5.096-15.731-0.332c-0.137,0.162-0.298,0.298-0.48,0.403
					L14.046,107.653z"/>
			</g>
			<path style="opacity:0.4;fill:#43240D;" d="M187.642,107.533l-78.541-48.382c-1.708-1.954-3.76-3.224-5.912-3.942V258.3
				c3.102-0.188,6.131-1.545,8.465-4.217l74.674-82.026C191.447,166.204,192.924,113.572,187.642,107.533z"/>
			<g>
				<path style="fill:#6F3E22;" d="M111.653,210.667c-5.124,5.864-13.561,5.717-18.837-0.321l-76.942-87.994
					c-5.281-6.032-5.409-15.684-0.282-21.539l74.667-85.399c5.129-5.862,13.562-5.72,18.842,0.323l76.941,87.992
					c5.28,6.041,5.405,15.685,0.285,21.537L111.653,210.667z"/>
				<path style="fill:#573018;" d="M102.494,217.038c-4.24,0-8.229-1.896-11.231-5.329L14.32,123.717
					c-5.934-6.783-6.061-17.669-0.282-24.268l74.667-85.4c2.827-3.231,6.63-5.009,10.714-5.009c4.24,0,8.233,1.898,11.236,5.341
					l76.941,87.991c5.932,6.777,6.059,17.655,0.284,24.263l-74.673,85.399C110.384,215.264,106.58,217.038,102.494,217.038z
					 M99.419,13.174c-2.873,0-5.574,1.278-7.604,3.597l-74.669,85.398c-4.462,5.104-4.331,13.546,0.283,18.826l76.942,87.993
					c4.303,4.928,11.563,5.081,15.728,0.322l74.671-85.401c4.458-5.104,4.335-13.543-0.282-18.815l-76.941-87.993
					C105.334,14.572,102.445,13.174,99.419,13.174z"/>
			</g>
			<path style="opacity:0.3;fill:#8B5036;" d="M100.63,172.041c-3.805,4.19-10.063,4.096-13.984-0.226l-57.108-62.967
				c-3.92-4.319-4.013-11.217-0.208-15.407L84.753,32.33c3.804-4.19,10.063-4.084,13.979,0.234l57.111,62.96
				c3.923,4.321,4.015,11.215,0.21,15.416L100.63,172.041z"/>
			<g>
				<path style="fill:#43240D;" d="M69.779,52.383c-2.277-0.872-4.837,0.267-5.71,2.544l-5.971,15.531
					c-0.877,2.278,0.262,4.838,2.539,5.708c2.277,0.88,4.838-0.258,5.71-2.536l5.971-15.537
					C73.195,55.815,72.057,53.263,69.779,52.383z"/>
				<path style="fill:#43240D;" d="M105.938,53.304c-2.1,1.244-2.798,3.95-1.559,6.048l8.457,14.336
					c1.239,2.107,3.949,2.802,6.047,1.566c2.106-1.244,2.805-3.958,1.565-6.06l-8.457-14.331
					C110.756,52.763,108.047,52.061,105.938,53.304z"/>
				<path style="fill:#43240D;" d="M91.242,98.215l5.971-15.53c0.872-2.277-0.261-4.838-2.545-5.709
					c-2.277-0.883-4.832,0.255-5.709,2.533l-5.968,15.53c-0.881,2.285,0.259,4.837,2.537,5.717
					C87.806,101.629,90.365,100.489,91.242,98.215z"/>
				<path style="fill:#43240D;" d="M138.831,70.771c2.437,0.203,4.575-1.598,4.785-4.03l1.408-16.579
					c0.21-2.44-1.59-4.571-4.029-4.781c-2.427-0.202-4.565,1.602-4.776,4.03l-1.41,16.57
					C134.597,68.42,136.402,70.563,138.831,70.771z"/>
				<path style="fill:#43240D;" d="M45.915,107.913c-2.277-0.873-4.831,0.266-5.708,2.543l-5.97,15.53
					c-0.879,2.277,0.26,4.837,2.537,5.709c2.278,0.88,4.839-0.258,5.712-2.536l5.974-15.538
					C49.333,111.344,48.196,108.793,45.915,107.913z"/>
				<path style="fill:#43240D;" d="M104.313,132.422c2.102-1.243,2.8-3.949,1.561-6.056l-8.456-14.327
					c-1.239-2.109-3.944-2.803-6.053-1.56c-2.098,1.235-2.798,3.95-1.558,6.051l8.454,14.324
					C99.498,132.963,102.207,133.666,104.313,132.422z"/>
				<path style="fill:#43240D;" d="M95.558,172.455c2.281,0.871,4.839-0.268,5.718-2.546l5.968-15.529
					c0.875-2.278-0.264-4.838-2.543-5.71c-2.275-0.88-4.83,0.26-5.708,2.536l-5.971,15.53
					C92.145,169.023,93.28,171.575,95.558,172.455z"/>
				<path style="fill:#43240D;" d="M129.786,125.509c2.435,0.211,4.575-1.6,4.781-4.028l1.413-16.579
					c0.211-2.432-1.595-4.573-4.028-4.78c-2.432-0.203-4.572,1.597-4.778,4.028l-1.413,16.58
					C125.552,123.169,127.355,125.3,129.786,125.509z"/>
				<path style="fill:#43240D;" d="M115.472,187.733l-15.271-6.607c-2.242-0.968-4.843,0.056-5.814,2.303
					c-0.97,2.236,0.068,4.846,2.3,5.807l15.272,6.605c2.247,0.969,4.847-0.058,5.814-2.294
					C118.742,191.304,117.709,188.702,115.472,187.733z"/>
				<path style="fill:#43240D;" d="M156.332,126.592l-14.291,8.511c-2.103,1.262-2.939,3.715-1.877,5.5
					c1.067,1.783,3.629,2.211,5.725,0.968l14.294-8.518c2.096-1.252,2.933-3.717,1.867-5.501
					C160.991,125.768,158.428,125.34,156.332,126.592z"/>
				<path style="fill:#43240D;" d="M48.645,94.344l16.633,0.455c2.442,0.063,4.473-1.86,4.543-4.297
					c0.064-2.439-1.862-4.476-4.304-4.54L48.888,85.51c-2.439-0.073-4.475,1.856-4.539,4.296
					C44.284,92.245,46.211,94.279,48.645,94.344z"/>
				<path style="fill:#43240D;" d="M91.698,33.47l16.625,0.452c2.449,0.063,4.477-1.858,4.546-4.297
					c0.066-2.439-1.862-4.473-4.302-4.537l-16.633-0.454c-2.438-0.072-4.469,1.859-4.534,4.296
					C87.334,31.369,89.26,33.405,91.698,33.47z"/>
				<path style="fill:#43240D;" d="M139.305,154.574l-16.633-0.451c-2.439-0.066-4.471,1.856-4.535,4.304
					c-0.069,2.438,1.862,4.466,4.297,4.53l16.632,0.45c2.442,0.075,4.474-1.849,4.538-4.296
					C143.673,156.673,141.746,154.64,139.305,154.574z"/>
				<path style="fill:#43240D;" d="M179.979,120.485l-8.456-14.325c-1.239-2.109-3.95-2.803-6.054-1.559
					c-2.098,1.235-2.799,3.95-1.561,6.048l8.456,14.326c1.239,2.109,3.947,2.812,6.05,1.567
					C180.52,125.3,181.217,122.594,179.979,120.485z"/>
				<path style="fill:#43240D;" d="M69.779,133.584c-2.277-0.88-4.837,0.26-5.71,2.536l-5.971,15.53
					c-0.877,2.286,0.262,4.837,2.539,5.717c2.277,0.872,4.838-0.267,5.71-2.545l5.971-15.526
					C73.195,137.018,72.057,134.458,69.779,133.584z"/>
				<path style="fill:#43240D;" d="M142.898,98.061c-0.21,2.439,1.595,4.578,4.023,4.788c2.437,0.203,4.576-1.6,4.781-4.028
					l1.413-16.58c0.211-2.44-1.595-4.573-4.028-4.78c-2.43-0.202-4.571,1.598-4.776,4.028L142.898,98.061z"/>
			</g>
			<g>
				<g>
					<path style="fill:#EDF2D2;" d="M63.326,72.387c-0.871,2.277-3.431,3.416-5.71,2.536l0,0c-2.277-0.873-3.416-3.433-2.539-5.709
						l5.972-15.53c0.871-2.277,3.434-3.416,5.712-2.544l0,0c2.274,0.879,3.414,3.431,2.539,5.71L63.326,72.387z"/>
					<path style="fill:#FFFFFF;" d="M63.634,63.858c-0.402,1.041-1.569,1.561-2.616,1.165l0,0c-1.041-0.406-1.561-1.576-1.158-2.609
						l2.733-7.107c0.395-1.04,1.567-1.56,2.608-1.164l0,0c1.041,0.405,1.56,1.576,1.162,2.608L63.634,63.858z"/>
				</g>
				<g>
					<path style="fill:#EDF2D2;" d="M117.427,67.954c1.238,2.098,0.541,4.812-1.562,6.056l0,0c-2.101,1.236-4.81,0.54-6.051-1.567
						l-8.454-14.335c-1.238-2.098-0.54-4.804,1.557-6.047l0,0c2.107-1.244,4.819-0.542,6.053,1.559L117.427,67.954z"/>
					<path style="fill:#FFFFFF;" d="M110.938,62.414c0.569,0.959,0.246,2.203-0.716,2.77l0,0c-0.959,0.565-2.201,0.249-2.765-0.711
						l-3.868-6.557c-0.566-0.962-0.246-2.197,0.718-2.77l0,0c0.963-0.565,2.196-0.244,2.766,0.717L110.938,62.414z"/>
				</g>
				<g>
					<path style="fill:#EDF2D2;" d="M88.221,96.97c-0.878,2.279-3.438,3.414-5.714,2.543l0,0c-2.277-0.88-3.416-3.433-2.535-5.718
						l5.969-15.529c0.874-2.278,3.432-3.414,5.709-2.534l0,0c2.281,0.872,3.414,3.432,2.542,5.708L88.221,96.97z"/>
					<path style="fill:#FFFFFF;" d="M88.523,88.449c-0.403,1.034-1.566,1.558-2.61,1.154l0,0c-1.044-0.395-1.565-1.566-1.16-2.608
						l2.729-7.106c0.4-1.034,1.566-1.557,2.608-1.154l0,0c1.042,0.395,1.563,1.566,1.163,2.608L88.523,88.449z"/>
				</g>
				<g>
					<path style="fill:#EDF2D2;" d="M140.595,65.497c-0.209,2.432-2.35,4.231-4.784,4.03l0,0c-2.431-0.208-4.235-2.35-4.021-4.789
						l1.408-16.569c0.21-2.432,2.352-4.232,4.778-4.031l0,0c2.439,0.21,4.239,2.341,4.029,4.78L140.595,65.497z"/>
					<path style="fill:#FFFFFF;" d="M138.513,57.221c-0.093,1.116-1.075,1.938-2.186,1.842l0,0
						c-1.113-0.091-1.938-1.067-1.842-2.181l0.646-7.585c0.096-1.112,1.071-1.937,2.19-1.841l0,0
						c1.11,0.098,1.934,1.074,1.836,2.183L138.513,57.221z"/>
				</g>
				<g>
					<path style="fill:#EDF2D2;" d="M39.469,127.915c-0.878,2.277-3.438,3.417-5.715,2.537l0,0
						c-2.277-0.872-3.417-3.432-2.537-5.709l5.969-15.53c0.877-2.278,3.431-3.416,5.709-2.545l0,0
						c2.282,0.879,3.417,3.432,2.544,5.709L39.469,127.915z"/>
					<path style="fill:#FFFFFF;" d="M39.772,119.387c-0.406,1.042-1.568,1.559-2.614,1.165l0,0c-1.042-0.405-1.563-1.575-1.16-2.607
						l2.733-7.108c0.399-1.041,1.563-1.559,2.607-1.164l0,0c1.041,0.404,1.563,1.574,1.163,2.608L39.772,119.387z"/>
				</g>
				<g>
					<path style="fill:#EDF2D2;" d="M102.854,125.123c1.241,2.105,0.54,4.81-1.563,6.056l0,0c-2.101,1.243-4.811,0.54-6.048-1.567
						l-8.457-14.325c-1.238-2.101-0.54-4.813,1.561-6.05l0,0c2.108-1.245,4.811-0.55,6.053,1.559L102.854,125.123z"/>
					<path style="fill:#FFFFFF;" d="M96.364,119.59c0.567,0.962,0.246,2.195-0.714,2.762l0,0c-0.961,0.572-2.199,0.25-2.768-0.71
						l-3.867-6.559c-0.564-0.954-0.246-2.195,0.719-2.763l0,0c0.962-0.563,2.197-0.249,2.762,0.712L96.364,119.59z"/>
				</g>
				<g>
					<path style="fill:#EDF2D2;" d="M98.254,168.666c-0.879,2.278-3.437,3.416-5.716,2.544l0,0c-2.279-0.88-3.412-3.431-2.537-5.717
						l5.974-15.53c0.874-2.277,3.431-3.416,5.703-2.536l0,0c2.284,0.872,3.422,3.432,2.546,5.71L98.254,168.666z"/>
					<path style="fill:#FFFFFF;" d="M98.554,160.146c-0.399,1.033-1.565,1.559-2.607,1.157l0,0
						c-1.042-0.398-1.565-1.567-1.165-2.609l2.729-7.107c0.406-1.033,1.573-1.56,2.614-1.156l0,0
						c1.042,0.398,1.559,1.568,1.159,2.611L98.554,160.146z"/>
				</g>
				<g>
					<path style="fill:#EDF2D2;" d="M131.546,120.235c-0.204,2.433-2.344,4.24-4.78,4.03l0,0c-2.43-0.21-4.235-2.342-4.025-4.781
						l1.414-16.579c0.205-2.431,2.344-4.231,4.775-4.029l0,0c2.437,0.21,4.24,2.351,4.03,4.781L131.546,120.235z"/>
					<path style="fill:#FFFFFF;" d="M129.468,111.967c-0.097,1.106-1.074,1.929-2.185,1.842l0,0
						c-1.115-0.098-1.939-1.074-1.847-2.191l0.646-7.581c0.099-1.107,1.075-1.93,2.191-1.842l0,0
						c1.111,0.099,1.934,1.075,1.842,2.188L129.468,111.967z"/>
				</g>
				<g>
					<path style="fill:#EDF2D2;" d="M112.453,186.488c2.236,0.971,3.271,3.57,2.3,5.816l0,0c-0.968,2.236-3.569,3.263-5.814,2.292
						l-15.27-6.604c-2.234-0.963-3.271-3.57-2.304-5.807l0,0c0.974-2.244,3.575-3.27,5.814-2.302L112.453,186.488z"/>
					<path style="fill:#FFFFFF;" d="M103.948,185.835c1.021,0.443,1.493,1.63,1.049,2.657l0,0c-0.444,1.026-1.634,1.493-2.651,1.049
						l-6.989-3.019c-1.019-0.443-1.496-1.631-1.052-2.657l0,0c0.446-1.025,1.631-1.495,2.654-1.052L103.948,185.835z"/>
				</g>
				<g>
					<path style="fill:#EDF2D2;" d="M142.87,140.328c-2.096,1.242-4.661,0.817-5.728-0.968l0,0c-1.062-1.786-0.226-4.24,1.878-5.5
						l14.291-8.512c2.096-1.252,4.66-0.823,5.717,0.962l0,0c1.066,1.782,0.231,4.247-1.864,5.499L142.87,140.328z"/>
					<path style="fill:#FFFFFF;" d="M148.588,134.166c-0.957,0.574-2.13,0.372-2.616-0.444l0,0
						c-0.485-0.815-0.102-1.938,0.851-2.511l6.545-3.9c0.955-0.565,2.124-0.373,2.609,0.451l0,0
						c0.489,0.808,0.104,1.938-0.849,2.503L148.588,134.166z"/>
				</g>
				<g>
					<path style="fill:#EDF2D2;" d="M62.494,84.719c2.442,0.063,4.371,2.1,4.305,4.539l0,0c-0.066,2.438-2.099,4.359-4.542,4.296
						l-16.631-0.453c-2.437-0.063-4.363-2.099-4.295-4.537l0,0c0.064-2.439,2.097-4.368,4.536-4.296L62.494,84.719z"/>
					<path style="fill:#FFFFFF;" d="M54.361,87.27c1.116,0.033,1.997,0.963,1.963,2.076l0,0c-0.03,1.114-0.959,1.995-2.07,1.962
						l-7.613-0.2c-1.111-0.033-1.993-0.962-1.961-2.075l0,0c0.032-1.115,0.962-1.995,2.067-1.965L54.361,87.27z"/>
				</g>
				<g>
					<path style="fill:#EDF2D2;" d="M105.546,23.845c2.439,0.063,4.37,2.098,4.302,4.536l0,0c-0.069,2.44-2.096,4.362-4.543,4.296
						l-16.628-0.45c-2.439-0.064-4.365-2.102-4.296-4.538l0,0c0.063-2.438,2.097-4.37,4.535-4.296L105.546,23.845z"/>
					<path style="fill:#FFFFFF;" d="M97.416,26.396c1.11,0.031,1.989,0.962,1.961,2.076l0,0c-0.032,1.112-0.96,1.994-2.074,1.962
						L89.69,30.23c-1.11-0.031-1.991-0.96-1.957-2.075l0,0c0.028-1.113,0.957-1.992,2.067-1.962L97.416,26.396z"/>
				</g>
				<g>
					<path style="fill:#EDF2D2;" d="M136.282,153.331c2.446,0.063,4.369,2.1,4.303,4.537l0,0c-0.067,2.447-2.096,4.369-4.54,4.298
						l-16.631-0.454c-2.436-0.064-4.365-2.09-4.299-4.529l0,0c0.067-2.446,2.099-4.37,4.535-4.303L136.282,153.331z"/>
					<path style="fill:#FFFFFF;" d="M128.149,155.891c1.112,0.033,1.993,0.951,1.966,2.074l0,0
						c-0.033,1.116-0.962,1.995-2.073,1.962l-7.614-0.206c-1.11-0.026-1.991-0.955-1.959-2.07l0,0
						c0.027-1.122,0.956-1.994,2.066-1.971L128.149,155.891z"/>
				</g>
				<g>
					<path style="fill:#EDF2D2;" d="M176.956,119.244c1.239,2.105,0.542,4.812-1.561,6.056l0,0c-2.104,1.243-4.815,0.54-6.054-1.567
						l-8.457-14.325c-1.233-2.1-0.536-4.813,1.566-6.05l0,0c2.102-1.245,4.811-0.55,6.051,1.56L176.956,119.244z"/>
					<path style="fill:#FFFFFF;" d="M170.468,113.711c0.566,0.961,0.246,2.196-0.713,2.763l0,0
						c-0.962,0.572-2.201,0.249-2.768-0.711l-3.868-6.559c-0.564-0.954-0.246-2.197,0.716-2.763l0,0
						c0.958-0.563,2.2-0.251,2.765,0.712L170.468,113.711z"/>
				</g>
				<g>
					<path style="fill:#EDF2D2;" d="M63.326,153.579c-0.871,2.277-3.431,3.417-5.71,2.545l0,0c-2.277-0.88-3.416-3.432-2.539-5.718
						l5.972-15.53c0.871-2.277,3.434-3.416,5.712-2.534l0,0c2.274,0.872,3.414,3.432,2.539,5.71L63.326,153.579z"/>
					<path style="fill:#FFFFFF;" d="M63.634,145.062c-0.402,1.033-1.569,1.558-2.616,1.154l0,0
						c-1.041-0.395-1.561-1.568-1.158-2.608l2.733-7.107c0.395-1.034,1.567-1.559,2.608-1.154l0,0
						c1.041,0.395,1.56,1.566,1.162,2.608L63.634,145.062z"/>
				</g>
				<g>
					<path style="fill:#EDF2D2;" d="M148.685,97.575c-0.205,2.429-2.348,4.233-4.781,4.03l0,0c-2.432-0.211-4.237-2.351-4.026-4.79
						l1.413-16.57c0.208-2.432,2.347-4.232,4.778-4.029l0,0c2.434,0.208,4.239,2.341,4.029,4.78L148.685,97.575z"/>
					<path style="fill:#FFFFFF;" d="M146.605,89.296c-0.098,1.116-1.074,1.939-2.185,1.842l0,0c-1.114-0.086-1.936-1.063-1.846-2.18
						l0.647-7.582c0.098-1.116,1.071-1.938,2.187-1.842l0,0c1.111,0.095,1.935,1.075,1.842,2.18L146.605,89.296z"/>
				</g>
			</g>
			<path style="fill:#8B5036;" d="M69.908,182.508c-10.57-12.169-20.935-24.543-31.494-36.672
				c-10.123-11.636-23.598-23.622-26.456-39.37c-0.05-0.233-0.381-0.038-0.389,0.13c-0.646,13.365,7.033,23.226,15.829,32.505
				c13.939,14.689,27.65,29.646,41.986,43.972C69.651,183.339,70.156,182.789,69.908,182.508z"/>
		</g>
	</g>
</g>
</svg>
