<?xml version="1.0" encoding="iso-8859-1"?>
<!-- Uploaded to: SVG Repo, www.svgrepo.com, Generator: SVG Repo Mixer Tools -->
<svg version="1.1" id="Layer_1" xmlns="http://www.w3.org/2000/svg" xmlns:xlink="http://www.w3.org/1999/xlink" 
	 viewBox="0 0 512.001 512.001" xml:space="preserve">
<path style="fill:#F8513A;" d="M509.024,216.85C490.178,94.049,384.074,0,256.001,0c-141.384,0-256,114.616-256,256
	c0,134.142,103.178,244.171,234.499,255.093L509.024,216.85z"/>
<polygon style="fill:#F72E12;" points="429.874,146.128 380.141,305.01 484.448,200.702 "/>
<path style="fill:#934D2B;" d="M512.001,256c0-13.312-1.018-26.386-2.977-39.15l-47.11-47.111L143.581,420.174l90.92,90.92
	c7.09,0.59,14.258,0.906,21.501,0.907C397.385,512,512.001,397.384,512.001,256z"/>
<path style="fill:#FFE376;" d="M256.001,91.826l-11.13,22.261l11.13,22.261c12.295,0,22.261-9.966,22.261-22.261
	S268.295,91.826,256.001,91.826z"/>
<path style="fill:#FFF3AD;" d="M233.74,114.087c0,12.295,9.966,22.261,22.261,22.261V91.826
	C243.706,91.826,233.74,101.792,233.74,114.087z"/>
<path style="fill:#FFE376;" d="M300.522,114.087h-44.522v44.522h44.522c12.295,0,22.261-9.966,22.261-22.261
	S312.817,114.087,300.522,114.087z"/>
<g>
	<path style="fill:#FFF3AD;" d="M211.479,114.087c-12.295,0-22.261,9.966-22.261,22.261c0,12.295,9.966,22.261,22.261,22.261h44.522
		v-44.522H211.479z"/>
	<path style="fill:#FFF3AD;" d="M278.261,114.087h-22.261l-22.261,44.522h44.522c12.295,0,22.261-9.966,22.261-22.261
		S290.556,114.087,278.261,114.087z"/>
</g>
<path style="fill:#FFFFFF;" d="M233.74,114.087c-12.295,0-22.261,9.966-22.261,22.261c0,12.295,9.966,22.261,22.261,22.261h22.261
	v-44.522H233.74z"/>
<path style="fill:#521F0E;" d="M406.261,136.348c-9.976,0-18.925,4.381-25.043,11.317c-6.118-6.936-15.067-11.317-25.043-11.317
	c-9.976,0-18.925,4.381-25.043,11.317c-6.118-6.936-15.067-11.317-25.043-11.317s-18.925,4.381-25.043,11.317
	c-6.118-6.936-15.067-11.317-25.043-11.317l-33.391,66.783h183.652c18.442,0,33.391-14.95,33.391-33.391
	S424.703,136.348,406.261,136.348z"/>
<path style="fill:#692811;" d="M230.957,147.665c-6.118-6.936-15.067-11.317-25.043-11.317c-9.976,0-18.925,4.381-25.043,11.317
	c-6.118-6.936-15.067-11.317-25.043-11.317c-9.976,0-18.925,4.381-25.043,11.317c-6.118-6.936-15.067-11.317-25.043-11.317
	c-18.442,0-33.391,14.95-33.391,33.391s14.949,33.391,33.391,33.391h150.261v-66.783
	C246.024,136.348,237.075,140.729,230.957,147.665z"/>
<path style="fill:#DBBC82;" d="M439.653,169.739L222.609,381.217l33.391,38.957h112.414v-38.945
	c56.29-36.752,93.499-100.293,93.499-172.533v-38.957H439.653z"/>
<path style="fill:#FFF3AD;" d="M72.348,169.739H50.088v38.957c0,72.238,37.206,135.777,93.492,172.528v38.95h112.421v-38.957
	L72.348,169.739z"/>
<path style="fill:#521F0E;" d="M233.044,185.739l22.957,206.609c101.428,0,183.652-82.224,183.652-183.652L233.044,185.739z"/>
<g>
	<path style="fill:#692811;" d="M72.348,208.696c0,101.428,82.224,183.652,183.652,183.652V185.739L72.348,208.696z"/>
	<path style="fill:#692811;" d="M256.001,169.739l-22.957,21.739l22.957,17.218c45.909,0.002,45.911,22.261,91.823,22.261
		c45.914,0,45.914-22.261,91.829-22.261v-38.957H256.001z"/>
</g>
<path style="fill:#813115;" d="M72.348,169.739v38.957c45.911,0,45.911,22.261,91.822,22.261c45.912,0,45.917-22.261,91.831-22.261
	v-38.957H72.348z"/>
<rect x="119.096" y="256" style="fill:#521F0E;" width="22.261" height="22.261"/>
<g>
	<rect x="346.157" y="289.391" style="fill:#3A160A;" width="22.261" height="22.261"/>
	<rect x="312.766" y="322.783" style="fill:#3A160A;" width="22.261" height="22.261"/>
</g>
</svg>