<?xml version="1.0" encoding="iso-8859-1"?>
<!-- Uploaded to: SVG Repo, www.svgrepo.com, Generator: SVG Repo Mixer Tools -->
<svg height="800px" width="800px" version="1.1" id="Layer_1" xmlns="http://www.w3.org/2000/svg" xmlns:xlink="http://www.w3.org/1999/xlink" 
	 viewBox="0 0 512 512" xml:space="preserve">
<path style="fill:#B7B9BC;" d="M298.711,237.291l-37.163-37.163l-32.426-32.425c-4.803-4.804-11.191-7.449-17.983-7.449
	c-5.224,0-10.206,1.566-14.414,4.474c-2.174,1.503-5.127,1.168-6.996-0.701L83.505,57.805c-4.559-4.56-11.438-5.957-17.976-3.088
	c-1.344,0.59-2.531,1.483-3.568,2.521c-2.159,2.16-6.27,6.271-8.43,8.431c-1.036,1.038-1.931,2.224-2.52,3.567
	c-2.869,6.537-1.471,13.415,3.088,17.972l106.233,106.234c1.894,1.894,2.154,4.863,0.643,7.076
	c-6.755,9.895-5.751,23.534,3.023,32.308l32.425,32.426l37.409,37.409c1.597,1.596,3.689,2.394,5.781,2.394
	c2.028,0,4.058-0.751,5.635-2.252c3.337-3.177,3.157-8.69-0.1-11.948l-27.029-27.029c-2.404-2.404-2.404-6.303,0-8.708l6.514-6.514
	c2.404-2.404,6.304-2.404,8.708,0l27.275,27.275c1.597,1.596,3.689,2.394,5.781,2.394c2.028,0,4.058-0.751,5.635-2.252
	c3.337-3.177,3.157-8.69-0.1-11.948l-27.029-27.029c-2.404-2.404-2.404-6.303,0-8.708l6.514-6.514c2.404-2.404,6.303-2.404,8.708,0
	l27.275,27.275c1.597,1.596,3.689,2.394,5.781,2.394c2.028,0,4.058-0.751,5.635-2.252
	C302.148,246.061,301.968,240.548,298.711,237.291z"/>
<g>
	<path style="opacity:0.15;fill:#FFFFFF;enable-background:new    ;" d="M83.505,57.805c-2.952-2.954-6.879-4.581-11.056-4.581
		c-1.732,0-3.415,0.295-5.009,0.833c-1.272,3.331-1.975,6.941-1.975,10.718c0,16.604,13.461,30.065,30.065,30.065
		c7.013,0,13.461-2.409,18.576-6.435L83.505,57.805z"/>
	<path style="opacity:0.15;fill:#FFFFFF;enable-background:new    ;" d="M229.122,167.703c-4.803-4.804-11.191-7.449-17.983-7.449
		c-5.224,0-10.206,1.566-14.414,4.474c-2.174,1.503-5.127,1.168-6.996-0.701l-4.965-4.965c-1.033,3.113-1.601,6.438-1.601,9.897
		c0,17.339,14.056,31.394,31.395,31.394c12.767,0,23.745-7.625,28.652-18.565L229.122,167.703z"/>
</g>
<path style="fill:#00A155;" d="M384.483,262.401c-16.3,16.3-41.85,18.459-51.75,18.653c-2.314,0.046-4.188-1.83-4.144-4.144
	c0.194-9.899,2.353-35.449,18.653-51.75s41.85-18.459,51.75-18.653c2.314-0.046,4.188,1.83,4.144,4.144
	C402.942,220.551,400.783,246.101,384.483,262.401z"/>
<path style="opacity:0.15;enable-background:new    ;" d="M357.864,259.956c-2.091,0-4.184-0.798-5.781-2.394
	c-3.192-3.192-3.192-8.368,0-11.559l16.001-16.001c3.193-3.192,8.368-3.192,11.561,0c3.192,3.192,3.192,8.368,0,11.559
	l-16.001,16.001C362.047,259.158,359.954,259.956,357.864,259.956z"/>
<path style="fill:#DE2A4E;" d="M430.684,285.277H81.719c0,0-1.83,27.213,2.939,50.171c3.137,15.098-4.696,25.634-1.847,47.39
	c2.381,18.193-1.092,41.616-1.092,41.616h345.695c0,0-1.109-19.388,1.606-40.508c2.753-21.412-2.805-44.487-2.911-52.444
	C425.898,315.587,430.684,285.277,430.684,285.277z"/>
<path style="fill:#F8E4C5;" d="M379.737,348.734c-17.182,2.902-36.657,6.19-56,6.19c-5.6,0-15.941-1.395-26.888-2.872
	c-14.845-2.002-31.672-4.272-46.276-4.605c-19.818-0.448-33.037,3.463-44.707,6.915c-14.893,4.406-26.655,7.884-49.159,1.125
	c-19.926-5.988-52.262-12.307-71.353-14.72c0.307,5.508-0.633,10.622-1.571,16.252c17.301,2.217,48.216,8.113,68.219,14.124
	c10.897,3.274,19.871,4.512,27.751,4.512c11.772,0,21.101-2.761,30.752-5.616c11.034-3.265,22.434-6.646,39.697-6.248
	c13.695,0.312,30.04,2.517,44.464,4.462c12.007,1.62,22.376,3.019,29.074,3.019c20.713,0,40.906-3.41,58.723-6.419
	c18.468-3.119,34.725-5.864,46.919-4.231c-0.443-6.079-1.175-11.758-1.835-16.597C413.744,343.007,397.704,345.699,379.737,348.734z
	 M416.679,381.092c-18.139,3.267-45.554,8.205-73.553,6.301c-2.487-0.169-6.67-0.577-11.966-1.092
	c-27.261-2.655-83.987-8.18-128.036-3.097c-45.244,5.225-101.156-5.27-120.948-9.841c0.004,2.923,0.187,6.062,0.635,9.477
	c0.323,2.462,0.534,5.021,0.666,7.604c25.799,5.561,79.161,13.887,121.52,9c42.325-4.886,97.881,0.527,124.579,3.128
	c5.43,0.529,9.716,0.946,12.442,1.132c4.721,0.32,9.405,0.464,14.023,0.464c24.751,0,47.582-4.112,63.537-6.986
	c2.974-0.535,5.782-1.041,8.273-1.456c0.274-3.782,0.652-7.747,1.171-11.777c0.215-1.665,0.373-3.34,0.493-5.019
	C425.977,379.423,421.74,380.181,416.679,381.092z M98.83,331.95c20.267,3.261,48.024,7.727,68.296,7.727
	c18.735,0,41.665-2.262,63.841-4.45c27.609-2.724,56.16-5.541,73.755-3.56c36.916,4.152,94.692,1.375,121.383-1.839
	c0.034-4.816,0.449-10.683,1.016-16.56c-21.671,2.89-82.708,6.411-120.571,2.152c-19.309-2.171-47.424,0.601-77.188,3.537
	c-21.781,2.148-44.305,4.37-62.236,4.37c-18.964,0-45.977-4.346-65.699-7.519c-7.894-1.27-14.483-2.329-19.612-2.986
	c0.33,5.385,0.884,11.109,1.778,16.747C88.044,330.215,93.359,331.07,98.83,331.95z"/>
<path style="fill:#C39774;" d="M499.656,458.776H12.344C5.527,458.776,0,453.249,0,446.432v-17.488
	c0-6.817,5.527-12.344,12.344-12.344h487.312c6.817,0,12.344,5.527,12.344,12.344v17.488
	C512,453.249,506.474,458.776,499.656,458.776z"/>
<path style="opacity:0.15;enable-background:new    ;" d="M509.803,448.629H22.491c-6.817,0-12.344-5.527-12.344-12.344v-17.488
	c0-0.689,0.071-1.36,0.179-2.018C4.471,417.744,0,422.815,0,428.944v17.488c0,6.817,5.527,12.344,12.344,12.344h487.312
	c6.128,0,11.2-4.471,12.165-10.326C511.163,448.558,510.492,448.629,509.803,448.629z"/>
<path style="opacity:0.1;enable-background:new    ;" d="M425.152,285.277H81.719c0,0-0.87,12.937,0.154,28.496
	c0.423-0.029,0.851-0.099,1.28-0.227c11.314-3.358,33.021-9.083,48.594-8.776c21.963,0.433,79.826,11.133,99.538,11.133
	c19.71,0,60.403-11.133,77.862-11.133c15.462,0,87.408,8.732,117.768,10.729c1.001-11.155,2.656-22.8,3.394-27.75
	C428.789,286.618,427.045,285.773,425.152,285.277z"/>
<path style="fill:#F8E4C5;" d="M75.618,287.202v10.558c0,3.921,3.775,6.731,7.534,5.615c11.314-3.358,33.021-9.083,48.594-8.776
	c21.963,0.433,79.826,11.133,99.538,11.133s60.403-11.133,77.862-11.133c16.056,0,93.024,9.417,121.083,10.929
	c3.351,0.181,6.16-2.496,6.16-5.853v-10c0-7.881-6.068-14.433-13.928-15.025c-22.81-1.718-70.723-4.79-121.707-4.79
	c-98.701,0-113.959-5.7-155.374-5.7c-21.825,0-45.063,5.009-58.451,8.45C80.267,274.32,75.618,280.323,75.618,287.202z"/>
</svg>