<svg id="Layer_1" data-name="Layer 1" xmlns="http://www.w3.org/2000/svg" viewBox="0 0 109.13 156.76"><defs><style>.cls-1,.cls-3{fill:none;stroke-miterlimit:10;}.cls-1{stroke:#ffc82f;stroke-width:0.5px;}.cls-2{font-size:52.35px;font-family:ImprintMT-Shadow, Imprint MT Shadow;}.cls-10,.cls-2,.cls-4{fill:#f2c428;}.cls-3{stroke:#f2c428;}.cls-5{font-size:27.43px;fill:#f3c429;}.cls-10,.cls-5{font-family:MyriadPro-Regular, Myriad Pro;}.cls-6{letter-spacing:-0.03em;}.cls-7{letter-spacing:0em;}.cls-8{letter-spacing:0.01em;}.cls-9{letter-spacing:-0.07em;}.cls-10{font-size:6.6px;}</style></defs><path class="cls-1" d="M85,65.42s-3.37,4.78-8.92,4.26c-6.94-.64-6.54-9.47-2.53-15.59" transform="translate(-26.06 -1.56)"/><path class="cls-1" d="M72.45,56.65l-.32-.4c-1.18-9.83,9.62-19,20.56-11.92" transform="translate(-26.06 -1.56)"/><path class="cls-1" d="M86.09,47.1s4.83,1.06,5.8,5.83c.4,1.94-2.14,7.6-7.46,9.1" transform="translate(-26.06 -1.56)"/><text class="cls-2" transform="translate(38.43 87.12) scale(0.96 1)">T</text><ellipse class="cls-3" cx="118.26" cy="33.37" rx="3.24" ry="10.07" transform="translate(-22.35 76.28) rotate(-36.98)"/><ellipse class="cls-3" cx="58.7" cy="22.04" rx="10.93" ry="3.51" transform="translate(-29.22 30.74) rotate(-30)"/><ellipse class="cls-3" cx="35.35" cy="54.64" rx="10.55" ry="3.39" transform="translate(-49.97 79.98) rotate(-81.51)"/><ellipse class="cls-3" cx="43.31" cy="35.41" rx="10.34" ry="3.33" transform="translate(-36.73 48.52) rotate(-54.48)"/><ellipse class="cls-3" cx="127.19" cy="52.03" rx="3.49" ry="10.87" transform="translate(-32.43 18.14) rotate(-8.64)"/><ellipse class="cls-3" cx="102.06" cy="20.71" rx="3.6" ry="10.89" transform="translate(7.04 97.18) rotate(-60)"/><ellipse class="cls-3" cx="54.96" cy="14.28" rx="12.46" ry="4.01"/><ellipse class="cls-3" cx="44.87" cy="95.1" rx="3.24" ry="10.07" transform="matrix(0.8, -0.6, 0.6, 0.8, -74.34, 44.76)"/><ellipse class="cls-3" cx="104.45" cy="106.3" rx="10.93" ry="3.51" transform="translate(-65.3 65.22) rotate(-30.12)"/><ellipse class="cls-3" cx="127.73" cy="73.65" rx="10.55" ry="3.39" transform="translate(10.24 187.76) rotate(-81.64)"/><ellipse class="cls-3" cx="119.82" cy="92.9" rx="10.34" ry="3.33" transform="translate(-51.38 135.19) rotate(-54.6)"/><ellipse class="cls-3" cx="35.89" cy="76.47" rx="3.49" ry="10.87" transform="translate(-37.29 4.8) rotate(-8.76)"/><ellipse class="cls-3" cx="61.1" cy="107.73" rx="3.6" ry="10.89" transform="translate(-88.81 105.48) rotate(-60.12)"/><ellipse class="cls-3" cx="82.14" cy="112.56" rx="12.46" ry="4.01" transform="translate(-26.3 -1.38) rotate(-0.12)"/><path class="cls-4" d="M47.32,18.2l-1.65-5.64,1-.61L51,15.87l-.7.44-3.77-3.5-.06,0L48,17.76Zm-.1-1.57-.4-.64,2.39-1.51.41.64Z" transform="translate(-26.06 -1.56)"/><path class="cls-4" d="M53.46,9l-.31-.69,3.74-1.66.31.69ZM57,12.85l-2.3-5.17.72-.32,2.29,5.17Z" transform="translate(-26.06 -1.56)"/><path class="cls-4" d="M62.42,10.72,62,9.56l-.23-.29-.37-1a.68.68,0,0,0-.48-.48,1.61,1.61,0,0,0-.89.09L59,8.16l-.18-.73.8-.27a2.35,2.35,0,0,1,1.59-.09,1.59,1.59,0,0,1,.91,1l.59,1.66.7-.16.22.64Zm-1.37.53a1.45,1.45,0,0,1-1.06,0,1.13,1.13,0,0,1-.64-.72,1.18,1.18,0,0,1,.12-1.13,2.24,2.24,0,0,1,1.19-.81,4.06,4.06,0,0,1,.64-.19,2.55,2.55,0,0,1,.54,0l0,.6a2.71,2.71,0,0,0-.51.1l-.49.17c-.68.24-.95.58-.79,1a.54.54,0,0,0,.32.35.83.83,0,0,0,.55,0,1.35,1.35,0,0,0,.56-.35.84.84,0,0,0,.25-.46.76.76,0,0,0,0-.45l-.16-.43.6.93-.31.12L62,9.76a1.07,1.07,0,0,1,0,.63,1,1,0,0,1-.32.5A1.74,1.74,0,0,1,61.05,11.25Z" transform="translate(-26.06 -1.56)"/><path class="cls-4" d="M65.71,9.73c-.3.08-.56.15-.78.19a5,5,0,0,1-.62.08l-.11-.76.72-.11A4.68,4.68,0,0,0,65.51,9a2.21,2.21,0,0,0,.85-.37.41.41,0,0,0,.17-.46.38.38,0,0,0-.17-.24A.59.59,0,0,0,66,7.87l-1,0a2.36,2.36,0,0,1-1-.14.87.87,0,0,1-.47-.61A1.08,1.08,0,0,1,63.82,6a3.37,3.37,0,0,1,1.54-.76l.55-.13c.17,0,.35-.06.54-.09l.11.73L66,5.9,65.54,6a2.86,2.86,0,0,0-.94.39.41.41,0,0,0-.2.46.3.3,0,0,0,.2.22,1.56,1.56,0,0,0,.42,0l.8,0a2.2,2.2,0,0,1,1,.15,1,1,0,0,1,.5.66A1.1,1.1,0,0,1,67.15,9,3.09,3.09,0,0,1,65.71,9.73Z" transform="translate(-26.06 -1.56)"/><path class="cls-4" d="M67.75,5.45l-.14-.68L71.31,4l.14.68Zm1.33,1.3-.69-3.44.81-.16.7,3.43Zm2.17,1.67a2,2,0,0,1-1.43-.12,1.64,1.64,0,0,1-.66-1.16L69,6.43l.81-.16.14.66a.94.94,0,0,0,.38.67,1.13,1.13,0,0,0,.82.06,3.48,3.48,0,0,0,.41-.1l.48-.16.24.71-.51.18Z" transform="translate(-26.06 -1.56)"/><path class="cls-4" d="M75.45,7.77a2.29,2.29,0,0,1-1.71-.35A2.19,2.19,0,0,1,73,5.88a2.42,2.42,0,0,1,.29-1.66,1.7,1.7,0,0,1,1.3-.74,1.66,1.66,0,0,1,1.37.34,2.23,2.23,0,0,1,.64,1.44c0,.19,0,.37,0,.54l-2.91.37-.08-.64,2.18-.28a1.29,1.29,0,0,0-.37-.83,1,1,0,0,0-.78-.21,1,1,0,0,0-.77.47,1.66,1.66,0,0,0-.16,1.06,1.45,1.45,0,0,0,.54,1A1.62,1.62,0,0,0,75.45,7a4,4,0,0,0,.5-.1l.5-.14.19.72a5.55,5.55,0,0,1-.66.18Z" transform="translate(-26.06 -1.56)"/><path class="cls-4" d="M84.27,7.32a1.66,1.66,0,0,1-1.34-.59,2.49,2.49,0,0,1-.45-1.63A2.45,2.45,0,0,1,83,3.5a1.87,1.87,0,0,1,2.69,0,2.43,2.43,0,0,1,.45,1.63,2.5,2.5,0,0,1-.5,1.61A1.65,1.65,0,0,1,84.27,7.32Zm0-.75A.83.83,0,0,0,85,6.21a1.94,1.94,0,0,0,.27-1.06A1.9,1.9,0,0,0,85,4.09a.81.81,0,0,0-.71-.38.79.79,0,0,0-.71.35,1.94,1.94,0,0,0-.27,1.06,1.88,1.88,0,0,0,.23,1.06A.82.82,0,0,0,84.28,6.57Z" transform="translate(-26.06 -1.56)"/><path class="cls-4" d="M87,4.74l.06-.68,3.84.34-.06.69Zm1.08,2.68.34-3.84c.13-1.46.85-2.12,2.16-2a4.84,4.84,0,0,1,.86.16l-.15.72-.44-.08-.36,0c-.74-.07-1.15.36-1.24,1.28L88.92,7.5Z" transform="translate(-26.06 -1.56)"/><path class="cls-4" d="M96.18,8.55l1.31-5.49.73.17-1.31,5.5Zm2-1.9-.08-2.42-.22-.05.23-1,.55.13,0,2.51h0l-.14.91Zm.22.06.33-.87,0,0L100,3.64l.54.13-.23,1-.22,0L98.87,6.82Zm.66,2.53,1.32-5.5.73.18L99.79,9.41Z" transform="translate(-26.06 -1.56)"/><path class="cls-4" d="M101.82,10.11A1.5,1.5,0,0,1,101,9.5a1.19,1.19,0,0,1-.07-1,1.22,1.22,0,0,1,.79-.83,2.33,2.33,0,0,1,1.43.09,3.35,3.35,0,0,1,.62.24,2.81,2.81,0,0,1,.46.29l-.34.49a2.86,2.86,0,0,0-.47-.22l-.49-.16q-1-.33-1.23.3a.54.54,0,0,0,0,.47.84.84,0,0,0,.46.3,1.31,1.31,0,0,0,.66.07.89.89,0,0,0,.48-.21.84.84,0,0,0,.26-.37l.14-.44-.1,1.1-.31-.1.16-.08a1.06,1.06,0,0,1-.34.53,1.09,1.09,0,0,1-.56.21A1.89,1.89,0,0,1,101.82,10.11Zm1.41.41.33-1.21V8.94l.33-1a.68.68,0,0,0-.09-.68,1.64,1.64,0,0,0-.77-.46l-.94-.33.3-.69.8.27a2.37,2.37,0,0,1,1.33.89,1.58,1.58,0,0,1,.09,1.36l-.53,1.68.65.3-.21.64Z" transform="translate(-26.06 -1.56)"/><path class="cls-4" d="M104.55,12.94l.25-.74,1.26.46a1.2,1.2,0,0,0,1,0,1.51,1.51,0,0,0,.64-.81L108.83,9l.4-.8.7.28-1.43,3.57a2.37,2.37,0,0,1-1.09,1.35,2.23,2.23,0,0,1-1.71-.07Zm1.91-1.2a1.5,1.5,0,0,1-.95-1,2.59,2.59,0,0,1,.2-1.65,2.76,2.76,0,0,1,1-1.38,1.46,1.46,0,0,1,1.37-.07,1.32,1.32,0,0,1,.65.51.85.85,0,0,1,.09.7l.3.12-.71,1a1.6,1.6,0,0,0,.14-1,.88.88,0,0,0-.57-.59.86.86,0,0,0-.85.07,2.08,2.08,0,0,0-.66.95,1.81,1.81,0,0,0-.16,1.09.88.88,0,0,0,.58.62.85.85,0,0,0,.81,0,1.56,1.56,0,0,0,.61-.82l-.19,1.22-.33-.13a.86.86,0,0,1-.54.45A1.27,1.27,0,0,1,106.46,11.74Z" transform="translate(-26.06 -1.56)"/><path class="cls-4" d="M109.44,12.89l.3-.62,1.5.73-.31.62Zm1.42.69L112.61,10l.75.36L111.61,14Zm.33-3.76.3-.62,2,1-.3.62Zm.35,4.1.31-.63,1.22.6-.3.62Zm1.81-4.56a.56.56,0,0,1-.29-.33.58.58,0,0,1,0-.45.59.59,0,0,1,1.08.06.59.59,0,0,1,0,.45.66.66,0,0,1-.34.3A.59.59,0,0,1,113.35,9.36Z" transform="translate(-26.06 -1.56)"/><path class="cls-4" d="M115.38,16.09a2.21,2.21,0,0,1-1.13-1.31,2.17,2.17,0,0,1,.31-1.7A2.24,2.24,0,0,1,115.84,12a2.11,2.11,0,0,1,1.65.29,2.21,2.21,0,0,1,.78.73,1.3,1.3,0,0,1,.22.87l-.81.1a1.3,1.3,0,0,0-.16-.62,1.29,1.29,0,0,0-1.41-.59,1.46,1.46,0,0,0-.8.73,1.33,1.33,0,0,0,.54,2,5,5,0,0,0,.51.27l.53.22-.29.68a3.66,3.66,0,0,1-.62-.25C115.77,16.31,115.57,16.2,115.38,16.09Z" transform="translate(-26.06 -1.56)"/><text class="cls-5" transform="translate(0.03 143.72)"><tspan class="cls-6">T</tspan><tspan class="cls-7" x="12.89" y="0">O</tspan><tspan class="cls-8" x="31.79" y="0">R</tspan><tspan class="cls-9" x="46.79" y="0">T</tspan><tspan x="58.36" y="0">A 19</tspan></text><text class="cls-10" transform="translate(32.18 155.11)"><tspan xml:space="preserve">S I N C E  2 0 1 8</tspan></text></svg>